<?xml version="1.0" encoding="UTF-8"?>
<svg xmlns="http://www.w3.org/2000/svg" version="1.1" viewBox="0 0 64 64">
  <!-- Generator: Adobe Illustrator 28.7.1, SVG Export Plug-In . SVG Version: 1.2.0 Build 142)  -->
  <g>
    <g id="Glyph">
      <g>
        <path d="M10.70593,24.09814c.68652-.39746,1.50732-.39844,2.1958,0,.6875.39697,1.09814,1.10791,1.09814,1.90186,0,.55225.44775,1,1,1h4c.55225,0,1-.44775,1-1,0-.79395.41064-1.50488,1.09814-1.90186.6875-.39746,1.50879-.39746,2.19629,0,.47852.27539,1.08936.11133,1.36621-.36621l2-3.46387c.27588-.47803.1123-1.08984-.36621-1.36621-.6875-.39697-1.09814-1.10791-1.09814-1.90186s.41064-1.50488,1.09814-1.90186c.47852-.27637.64209-.88818.36621-1.36621l-2-3.46387c-.27686-.47852-.8877-.64355-1.36621-.36621-.6875.39697-1.50879.39697-2.19629,0s-1.09814-1.10791-1.09814-1.90186c0-.55225-.44775-1-1-1h-4c-.55225,0-1,.44775-1,1,0,.79395-.41064,1.50488-1.09814,1.90186-.68848.39697-1.50928.39697-2.1958,0-.47949-.27734-1.09033-.1123-1.36621.36621l-2,3.46387c-.27588.47803-.1123,1.08984.36621,1.36621.6875.39697,1.09814,1.10791,1.09814,1.90186s-.41064,1.50488-1.09814,1.90186c-.47852.27637-.64209.88818-.36621,1.36621l2,3.46387c.27588.47754.88672.6416,1.36621.36621ZM16.99987,13c2.20557,0,4,1.79443,4,4s-1.79443,4-4,4-4-1.79443-4-4,1.79443-4,4-4Z"/>
        <circle cx="16.99987" cy="17" r="2"/>
        <rect x="8.79431" y="43" width="8" height="14" rx="1" ry="1"/>
        <rect x="18.79431" y="37" width="8" height="20" rx="1" ry="1"/>
        <rect x="28.79431" y="31" width="8" height="26" rx="1" ry="1"/>
        <rect x="38.79431" y="27" width="8" height="30" rx="1" ry="1"/>
        <rect x="48.79431" y="21" width="8" height="36" rx="1" ry="1"/>
        <path d="M29.79431,9h12c.55225,0,1-.44775,1-1s-.44775-1-1-1h-12c-.55225,0-1,.44775-1,1s.44775,1,1,1Z"/>
        <path d="M29.79431,13h12c.55225,0,1-.44775,1-1s-.44775-1-1-1h-12c-.55225,0-1,.44775-1,1s.44775,1,1,1Z"/>
        <circle cx="45.79431" cy="8" r="1"/>
        <circle cx="45.79431" cy="12" r="1"/>
        <path d="M39.79431,19c0,.07684.01703.14899.02271.22443l-4.8551,2.7124c-.54681-.57428-1.31384-.93683-2.1676-.93683-1.6543,0-3,1.3457-3,3,0,.26086.04395.50952.10681.75098l-5.34918,4.82922c-.49518-.36078-1.09937-.5802-1.75763-.5802-1.6543,0-3,1.3457-3,3,0,.20563.02106.40637.06067.60046l-5.16547,3.09332c-.51831-.42676-1.17291-.69379-1.8952-.69379-1.6543,0-3,1.3457-3,3s1.3457,3,3,3,3-1.3457,3-3c0-.20563-.02106-.40637-.06067-.60046l5.16547-3.09332c.51831.42676,1.17291.69379,1.8952.69379,1.6543,0,3-1.3457,3-3,0-.26086-.04395-.50958-.10681-.75104l5.34918-4.82916c.49518.36078,1.09937.5802,1.75763.5802,1.6543,0,3-1.3457,3-3,0-.07684-.01703-.14899-.02271-.22443l4.8551-2.7124c.54681.57428,1.31384.93683,2.1676.93683,1.6543,0,3-1.3457,3-3,0-.16736-.02289-.32874-.04938-.48871l5.07703-2.26874c.52875.46558,1.21411.75745,1.97235.75745,1.6543,0,3-1.3457,3-3s-1.3457-3-3-3-3,1.3457-3,3c0,.16736.02289.32874.04938.48871l-5.07703,2.26874c-.52875-.46558-1.21411-.75745-1.97235-.75745-1.6543,0-3,1.3457-3,3Z"/>
      </g>
    </g>
  </g>
</svg>