<?xml version="1.0" encoding="UTF-8"?>
<svg xmlns="http://www.w3.org/2000/svg" version="1.1" viewBox="0 0 64 64">
  <!-- Generator: Adobe Illustrator 28.7.1, SVG Export Plug-In . SVG Version: 1.2.0 Build 142)  -->
  <g>
    <g id="Glyph">
      <g>
        <path d="M52.47998,47.33887s-10.17969-10.17969-10.18231-10.18146l-1.25714-1.25702c-.39062-.39062-1.02344-.39062-1.41406,0s-.39062,1.02344,0,1.41406l.55212.55206-3.65662,3.65497c-.39844.40039-1.09277.40039-1.49316,0l-11.63379-11.63477c-.2002-.19922-.30957-.46387-.30957-.74609s.10938-.54688.30957-.74707l3.65576-3.65576.56396.56396c.36456.36456,1.02075.39333,1.41407,0,.39062-.39062.39062-1.02344,0-1.41406l-12.72168-12.72168c-.39062-.39062-1.02344-.39062-1.41406,0s-.39062,1.02344,0,1.41406l.56396.56396-5.10986,5.10986c-2.87598,2.875-3.24707,7.36426-.88281,10.67188,7.33398,10.26758,16.25879,19.19238,26.52734,26.52734,1.45605,1.04102,3.14062,1.55078,4.81641,1.55078,2.12988,0,4.24512-.82422,5.85449-2.43359l5.11035-5.11035.55176.55176c.36931.36931,1.01581.39826,1.41406,0,.39062-.39062.39062-1.02344,0-1.41406,0,0-1.25861-1.25848-1.25879-1.25879Z"/>
        <path d="M42.03174,21.99609v1h2v-1c0-.55273.44727-1,1-1h1v-2h-1c-.55273,0-1-.44727-1-1v-1h-2v1c0,.55273-.44727,1-1,1h-1v2h1c.55273,0,1,.44727,1,1Z"/>
        <path d="M42.92041,26.99609c3.85938,0,7-3.14062,7-7s-3.14062-7-7-7-7,3.14062-7,7,3.14062,7,7,7ZM38.03174,17.99609c0-.55273.44727-1,1-1h1v-1c0-.55273.44727-1,1-1h4c.55273,0,1,.44727,1,1v1h1c.55273,0,1,.44727,1,1v4c0,.55273-.44727,1-1,1h-1v1c0,.55273-.44727,1-1,1h-4c-.55273,0-1-.44727-1-1v-1h-1c-.55273,0-1-.44727-1-1v-4Z"/>
        <path d="M29.04737,31.28906c-.28613.28613-.37207.71582-.2168,1.08984.1543.37402.51953.61719.92383.61719h13.33301c7.16797,0,13-5.83203,13-13s-5.83203-13-13-13-13,5.83203-13,13c0,2.77734.89746,5.48145,2.54199,7.70996l-3.58203,3.58301ZM42.92041,10.99609c4.96289,0,9,4.03711,9,9s-4.03711,9-9,9-9-4.03711-9-9,4.03711-9,9-9Z"/>
      </g>
    </g>
  </g>
</svg>